<svg width="56" height="56" viewBox="0 0 56 56" fill="none" xmlns="http://www.w3.org/2000/svg">
<rect width="56" height="56" rx="28" fill="#3D544D"/>
<path d="M26.4962 20C19.6247 21.3333 19 28 19 28M19 28V32.2519C19 32.9471 19 33.2947 19.0574 33.5838C19.2937 34.7751 20.2249 35.7063 21.4162 35.9426C21.7053 36 22.0529 36 22.7481 36V36C23.4434 36 23.791 36 24.0801 35.9426C25.2713 35.7063 26.2025 34.7751 26.4389 33.5838C26.4962 33.2947 26.4962 32.9471 26.4962 32.2519V32C26.4962 31.07 26.4962 30.605 26.394 30.2235C26.1166 29.1883 25.308 28.3796 24.2727 28.1022C23.8912 28 23.4262 28 22.4962 28H19Z" stroke="white" stroke-width="1.5"/>
<path d="M37 20C30.1285 21.3333 29.5038 28 29.5038 28M29.5038 28V32.2519C29.5038 32.9471 29.5038 33.2947 29.5611 33.5838C29.7975 34.7751 30.7287 35.7063 31.9199 35.9426C32.209 36 32.5567 36 33.2519 36V36C33.9471 36 34.2947 36 34.5838 35.9426C35.7751 35.7063 36.7063 34.7751 36.9427 33.5838C37 33.2947 37 32.9471 37 32.2519V32C37 31.07 37 30.605 36.8978 30.2235C36.6204 29.1883 35.8117 28.3796 34.7765 28.1022C34.395 28 33.93 28 33 28H29.5038Z" stroke="white" stroke-width="1.5"/>
</svg>
